<?xml version="1.0" encoding="iso-8859-1"?>
<!-- Generator: Adobe Illustrator 25.2.3, SVG Export Plug-In . SVG Version: 6.00 Build 0)  -->
<svg version="1.1" id="Layer_1" xmlns="http://www.w3.org/2000/svg" xmlns:xlink="http://www.w3.org/1999/xlink" x="0px" y="0px"
	 viewBox="0 0 861.978 263.983" style="enable-background:new 0 0 861.978 263.983;" xml:space="preserve">
<g>
	<g>
		<polygon points="420.169,55.292 378.562,55.292 328.277,127.159 328.277,55.292 292.01,55.292 292.01,211.041 328.277,211.041 
			328.277,176.776 350.972,146.961 382.566,211.041 422.616,211.041 374.334,115.812 		"/>
		<polygon points="532.076,146.739 477.12,55.292 439.518,55.292 439.518,211.041 475.339,211.041 475.339,114.477 533.634,211.041 
			567.899,211.041 567.899,55.292 532.076,55.292 		"/>
		<path d="M679.194,55.119h-59.852c-20.692,0-30.705,9.79-30.705,30.705v94.339c0,20.692,10.013,30.705,30.705,30.705h59.852
			c20.915,0,30.705-10.012,30.705-30.705V85.824C709.899,64.909,700.109,55.119,679.194,55.119z M672.965,174.601
			c0,3.115-0.89,4.227-4.228,4.227H629.8c-3.115,0-4.228-1.112-4.228-4.227V91.387c0-3.337,1.112-4.227,4.228-4.227h38.937
			c3.338,0,4.228,0.89,4.228,4.227V174.601z"/>
		<polygon points="807.628,132.276 855.688,55.292 816.083,55.292 788.048,102.684 760.014,55.292 718.852,55.292 766.688,131.609 
			717.517,211.041 757.121,211.041 786.268,162.314 815.638,211.041 856.8,211.041 		"/>
		<polygon points="671.776,16.874 626.761,16.874 649.269,45.503 		"/>
	</g>
	<linearGradient id="SVGID_1_" gradientUnits="userSpaceOnUse" x1="260.8042" y1="258.8973" x2="0.2883" y2="4.7874">
		<stop  offset="0" style="stop-color:#E900C3"/>
		<stop  offset="0.0712" style="stop-color:#EB1FAD"/>
		<stop  offset="0.1962" style="stop-color:#ED518A"/>
		<stop  offset="0.3245" style="stop-color:#F07B6D"/>
		<stop  offset="0.454" style="stop-color:#F29D55"/>
		<stop  offset="0.5849" style="stop-color:#F3B842"/>
		<stop  offset="0.718" style="stop-color:#F4CB35"/>
		<stop  offset="0.8546" style="stop-color:#F5D62D"/>
		<stop  offset="1" style="stop-color:#F5DA2A"/>
	</linearGradient>
	<path style="fill:url(#SVGID_1_);" d="M5.177,6.47v251.044h251.044V6.47H5.177z M208.998,82.002l-49.989,49.989l49.989,49.99v28.31
		h-62.723l-28.635-28.635v28.635H52.4v-49.794v-7.161l21.343-21.344L52.4,110.648v-7.162V53.692h65.24v28.635l28.635-28.635h62.723
		V82.002z"/>
</g>
</svg>
