<svg width="120" height="26" viewBox="0 0 120 26" fill="none" xmlns="http://www.w3.org/2000/svg">
<path fill-rule="evenodd" clip-rule="evenodd" d="M35.3896 5.72113H38.2556V7.49512H38.3922C38.6921 7.14021 39.0742 6.78549 39.511 6.48538C40.2478 5.96681 41.3122 5.44824 42.759 5.44824C46.4436 5.44824 49.3092 8.31398 49.3092 12.6808C49.3092 17.0478 46.4436 19.9134 42.759 19.9134C41.3122 19.9134 40.2478 19.4222 39.511 18.9036C39.0742 18.6032 38.6921 18.2484 38.3922 17.8665H38.2556V24.8262H35.3896V5.72113ZM42.2129 17.3207C44.6969 17.3207 46.307 15.7102 46.307 12.6808C46.307 9.65123 44.6969 8.0409 42.2129 8.0409C39.8931 8.0409 38.2556 9.65123 38.2556 12.6808C38.2556 15.7102 39.8931 17.3207 42.2129 17.3207Z" fill="white"/>
<path fill-rule="evenodd" clip-rule="evenodd" d="M51.4473 5.72257H54.3132V7.76945H54.4498C54.6681 7.36011 54.9684 7.00539 55.3231 6.67788C55.9507 6.13209 56.8784 5.58594 58.2705 5.58594H59.9084V8.31542H58.1344C55.9507 8.31542 54.3132 9.81651 54.3132 12.1363V19.6419H51.4473V5.72257Z" fill="white"/>
<path fill-rule="evenodd" clip-rule="evenodd" d="M67.5627 5.44922C71.5204 5.44922 74.659 8.61525 74.659 12.682V13.6369H63.3325C63.7693 15.9571 65.516 17.3217 67.5627 17.3217C68.982 17.3217 69.9919 16.885 70.6197 16.3664C70.9746 16.0935 71.2749 15.766 71.5204 15.4111H74.5224C74.1677 16.257 73.7035 17.0214 73.0761 17.6764C71.9846 18.7682 70.3194 19.9144 67.5627 19.9144C63.6056 19.9144 60.4668 16.7485 60.4668 12.682C60.4668 8.61525 63.6056 5.44922 67.5627 5.44922ZM71.6569 11.3171C71.3566 9.6796 70.0467 8.04188 67.5627 8.04188C65.6521 8.04188 63.9055 9.24287 63.469 11.3171H71.6569Z" fill="white"/>
<path fill-rule="evenodd" clip-rule="evenodd" d="M76.7334 5.72113H79.5993V7.63175H79.736C79.9814 7.22223 80.2817 6.86732 80.6637 6.53981C81.3189 5.99403 82.3012 5.44824 83.8297 5.44824C85.6037 5.44824 86.7228 6.10307 87.4049 6.75827C87.8146 7.14021 88.1149 7.57695 88.3332 8.0409H88.4696C88.7151 7.57695 89.07 7.14021 89.534 6.75827C90.2708 6.10307 91.4718 5.44824 93.2458 5.44824C96.4116 5.44824 98.4317 7.4679 98.4317 11.3162V19.6405H95.5656V11.4526C95.5656 9.13266 94.5012 8.0409 92.5634 8.0409C90.6802 8.0409 89.0156 9.67844 89.0156 11.9986V19.6405H86.1495V11.4526C86.1495 9.13266 85.0851 8.0409 83.1473 8.0409C81.2641 8.0409 79.5993 9.67844 79.5993 11.9986V19.6405H76.7334V5.72113Z" fill="white"/>
<path fill-rule="evenodd" clip-rule="evenodd" d="M102.608 0.262207C103.563 0.262207 104.328 1.02645 104.328 1.98176C104.328 2.93707 103.563 3.67373 102.608 3.67373C101.653 3.67373 100.916 2.93707 100.916 1.98176C100.916 1.02645 101.653 0.262207 102.608 0.262207ZM101.189 19.6403H104.055V5.72098H101.189V19.6403Z" fill="white"/>
<path fill-rule="evenodd" clip-rule="evenodd" d="M112.63 5.44922C114.049 5.44922 115.141 5.96779 115.878 6.48636C116.315 6.78646 116.697 7.14137 116.997 7.4961H117.134V5.72211H119.999V19.6415H117.134V17.731H116.997C116.697 18.1404 116.315 18.4951 115.878 18.8228C115.141 19.3686 114.049 19.9144 112.63 19.9144C108.946 19.9144 106.08 17.0488 106.08 12.682C106.08 8.31514 108.946 5.44922 112.63 5.44922ZM113.176 17.3217C115.496 17.3217 117.134 15.7114 117.134 12.682C117.134 9.65239 115.496 8.04188 113.176 8.04188C110.692 8.04188 109.082 9.65239 109.082 12.682C109.082 15.7114 110.692 17.3217 113.176 17.3217Z" fill="white"/>
<path fill-rule="evenodd" clip-rule="evenodd" d="M7.06225 5.6653H18.906C19.5795 5.6653 19.9685 6.42936 19.5726 6.97403L13.936 14.7244C13.5397 15.2691 13.9289 16.0331 14.6024 16.0331H19.5698C19.8334 16.0331 20.0811 15.907 20.2362 15.6935L25.8107 8.02869C26.0208 7.73958 26.0208 7.34832 25.8107 7.05922L20.9234 0.339624C20.7684 0.126194 20.5206 0 20.2571 0H5.71121C5.44745 0 5.19991 0.126194 5.04482 0.339624L0.157556 7.05922C-0.0525187 7.34832 -0.0525187 7.73977 0.157556 8.02869L12.3175 24.7489C12.6465 25.2013 13.3216 25.2013 13.6506 24.7489L16.134 21.334C16.3443 21.0449 16.3443 20.6535 16.134 20.3644L6.39586 6.97403C5.99976 6.42936 6.38878 5.6653 7.06225 5.6653Z" fill="#5294FF"/>
</svg>
