<svg width="202" height="67" viewBox="0 0 202 67" fill="none" xmlns="http://www.w3.org/2000/svg">
<path d="M67.0223 0H0V66.4116H67.0223V0Z" fill="#8716E8"/>
<path d="M101.259 32.7572C100.897 32.3982 100.444 32.0392 99.8099 31.77C99.1759 31.5008 98.542 31.2315 97.6362 31.052L96.3683 30.7828C96.006 30.6931 95.7343 30.6033 95.4625 30.5136C95.1908 30.4238 95.0097 30.3341 94.8285 30.2443C94.6474 30.1546 94.5568 29.9751 94.4663 29.8854C94.3757 29.7059 94.3757 29.6161 94.3757 29.4366C94.3757 29.2571 94.4663 28.9879 94.5568 28.8084C94.6474 28.6289 94.9191 28.5392 95.1908 28.3597C95.4625 28.2699 95.8248 28.1802 96.1871 28.1802C96.8211 28.1802 97.3645 28.3597 97.6362 28.6289C97.9985 28.8982 98.1797 29.2571 98.1797 29.7956H102.074C102.074 28.8084 101.802 28.0007 101.35 27.193C100.897 26.475 100.172 25.8468 99.2665 25.4878C98.3608 25.0391 97.3645 24.8596 96.0965 24.8596C94.9191 24.8596 93.8323 25.0391 92.9266 25.4878C92.0209 25.8468 91.2963 26.475 90.7529 27.193C90.2094 27.911 89.9377 28.7187 90.0283 29.7059C90.0283 30.8726 90.3906 31.77 91.2057 32.488C91.9303 33.2059 93.0171 33.6547 94.3757 33.9239L95.9154 34.2829C96.4588 34.3726 96.9117 34.5521 97.274 34.6419C97.6362 34.8213 97.8174 34.9111 97.9985 35.0906C98.1797 35.2701 98.1797 35.4496 98.1797 35.7188C98.1797 35.988 98.0891 36.1675 97.908 36.347C97.7268 36.5265 97.5457 36.706 97.274 36.7957C97.0022 36.8855 96.64 36.9752 96.1871 36.9752C95.6437 36.9752 95.1908 36.8855 94.8285 36.706C94.4663 36.5265 94.1945 36.347 93.9228 35.988C93.7417 35.7188 93.5606 35.2701 93.5606 34.8213H89.666C89.666 36.0778 89.9377 37.065 90.4812 37.8727C91.0246 38.6804 91.7491 39.3086 92.7454 39.6676C93.7417 40.0266 94.8285 40.2061 96.1871 40.2061C97.4551 40.2061 98.542 40.0266 99.4477 39.6676C100.353 39.3086 101.078 38.7701 101.531 38.1419C101.984 37.424 102.255 36.6163 102.255 35.6291C102.255 35.0906 102.165 34.5521 101.984 34.0136C101.893 33.6547 101.621 33.2059 101.259 32.7572Z" fill="white"/>
<path d="M113.395 30.9624H107.96V25.1289H103.885V40.1164H107.96V34.2829H113.395V40.1164H117.47V25.1289H113.395V30.9624Z" fill="white"/>
<path d="M119.371 40.1164H130.149V36.7958H123.447V34.2829H129.606V30.9624H123.447V28.3597H130.24V25.1289H119.371V40.1164Z" fill="white"/>
<path d="M143.554 32.9367C144.007 32.2187 144.278 31.3212 144.278 30.2443C144.278 29.1673 144.007 28.2699 143.554 27.4622C143.101 26.7442 142.467 26.116 141.561 25.6673C140.746 25.2186 139.75 25.0391 138.663 25.0391H132.232V40.0265H136.308V35.0905H137.757L140.384 40.0265H144.822L141.742 34.3726C142.467 34.1033 143.101 33.5649 143.554 32.9367ZM136.308 28.3596H137.757C138.21 28.3596 138.663 28.4494 139.025 28.5391C139.388 28.6289 139.659 28.8981 139.84 29.1673C140.022 29.4366 140.112 29.7956 140.112 30.2443C140.112 30.693 140.022 31.052 139.84 31.2315C139.659 31.5007 139.388 31.6802 139.025 31.77C138.663 31.8597 138.301 31.9495 137.757 31.9495H136.308V28.3596Z" fill="white"/>
<path d="M150.076 25.1289H146V40.1164H156.144V36.7958H150.076V25.1289Z" fill="white"/>
<path d="M167.466 25.7571C166.379 25.1289 165.111 24.8596 163.752 24.8596C162.394 24.8596 161.126 25.1289 160.039 25.7571C158.952 26.3853 158.046 27.193 157.412 28.3597C156.778 29.5264 156.416 30.8726 156.416 32.5777C156.416 34.2829 156.778 35.6291 157.412 36.7957C158.046 37.9624 158.952 38.7701 160.039 39.3984C161.126 40.0266 162.394 40.2958 163.752 40.2958C165.111 40.2958 166.379 40.0266 167.466 39.3984C168.552 38.7701 169.458 37.9624 170.092 36.7957C170.726 35.6291 171.088 34.2829 171.088 32.5777C171.088 30.8726 170.726 29.5264 170.092 28.3597C169.458 27.193 168.552 26.3853 167.466 25.7571ZM166.56 34.9111C166.288 35.5393 166.017 35.988 165.473 36.347C165.02 36.706 164.477 36.7957 163.752 36.7957C163.118 36.7957 162.484 36.6163 162.031 36.347C161.579 35.988 161.216 35.5393 160.945 34.9111C160.673 34.2829 160.582 33.5649 160.582 32.6675C160.582 31.77 160.673 31.052 160.945 30.4238C161.216 29.7956 161.488 29.3469 162.031 28.9879C162.484 28.6289 163.028 28.5392 163.752 28.5392C164.386 28.5392 165.02 28.7187 165.473 28.9879C165.926 29.3469 166.288 29.7956 166.56 30.4238C166.832 31.052 166.922 31.77 166.922 32.6675C166.922 33.4752 166.741 34.2829 166.56 34.9111Z" fill="white"/>
<path d="M177.611 28.9879C178.064 28.6289 178.698 28.4494 179.332 28.4494C179.694 28.4494 180.056 28.5392 180.418 28.6289C180.69 28.7187 180.962 28.8982 181.234 29.0776C181.415 29.2571 181.596 29.5264 181.777 29.7956C181.868 30.0648 181.958 30.4238 182.049 30.6931H186.215C186.124 29.7956 185.943 28.8982 185.581 28.1802C185.219 27.4622 184.766 26.834 184.132 26.3853C183.498 25.8468 182.864 25.4878 182.049 25.2186C181.234 24.9494 180.418 24.8596 179.422 24.8596C178.064 24.8596 176.886 25.1289 175.709 25.7571C174.622 26.3853 173.716 27.193 173.082 28.3597C172.448 29.5264 172.086 30.8726 172.086 32.5777C172.086 34.2829 172.358 35.6291 172.992 36.7957C173.626 37.9624 174.531 38.7701 175.618 39.3984C176.705 40.0266 177.973 40.2958 179.332 40.2958C180.418 40.2958 181.415 40.1163 182.23 39.7573C183.045 39.3984 183.77 38.9496 184.313 38.4112C184.856 37.8727 185.309 37.2445 185.581 36.6163C185.853 35.988 186.034 35.2701 186.124 34.6419H181.958C181.868 35.0008 181.777 35.2701 181.686 35.5393C181.505 35.8085 181.415 35.988 181.143 36.1675C180.962 36.347 180.69 36.5265 180.328 36.6163C180.056 36.706 179.694 36.7957 179.332 36.7957C178.698 36.7957 178.064 36.6163 177.611 36.347C177.158 36.0778 176.796 35.5393 176.524 34.9111C176.252 34.2829 176.162 33.5649 176.162 32.5777C176.162 31.6803 176.252 30.9623 176.524 30.3341C176.796 29.7956 177.158 29.2571 177.611 28.9879Z" fill="white"/>
<path d="M195.814 31.7701L200.886 25.1289H196.176L191.647 31.1418H191.466V25.1289H187.391V40.1164H191.466V36.2573L192.825 34.4624L196.176 40.1164H201.067L195.814 31.7701Z" fill="white"/>
<path d="M61.7695 17.1411L53.9804 17.2309H53.6182C51.9879 17.3206 50.5387 17.9488 49.4519 18.8463L43.746 23.2438C43.746 23.2438 43.6554 23.2438 43.6554 23.3335L28.0772 35.2697V28.7183C28.0772 27.9106 27.4432 27.2823 26.6281 27.2823L10.4159 27.4618C9.60079 27.4618 8.9668 28.09 8.9668 28.8978L9.05737 39.5774V40.9236V41.8211V42.0006C9.05737 42.1801 9.05737 42.3596 9.05737 42.6288C9.05737 42.7185 9.05737 42.7185 9.05737 42.8083C9.05737 42.898 9.05737 42.898 9.05737 42.9878C9.05737 43.257 9.14794 43.5262 9.14794 43.616C9.14794 43.8852 9.23851 44.0647 9.32908 44.334C9.51022 44.9622 9.69136 45.5006 9.96308 45.8596C10.1442 46.2186 10.3254 46.4878 10.5971 46.8468C11.1405 47.6545 11.7745 48.193 12.3179 48.552C13.8576 49.7187 16.2125 50.5264 18.839 50.5264C21.4656 50.5264 23.911 49.7187 25.3601 48.4622C25.5412 48.3725 25.7224 48.193 25.9035 48.1033C26.3564 47.7443 27.0809 47.0263 27.8961 46.2186C28.4395 45.6801 28.9829 45.0519 29.3452 44.6929L43.8365 29.6157C43.9271 29.526 44.0177 29.4362 44.0177 29.3465L47.0971 26.1156L50.7199 22.4361L51.4445 21.6284C52.7125 20.4617 54.3427 19.7437 56.2447 19.7437H59.5958H61.8601C62.5847 19.7437 63.1281 19.1155 63.1281 18.3975C63.1281 17.7693 62.4941 17.1411 61.7695 17.1411Z" fill="white"/>
</svg>
